Coordinates
version=1
nRows=10
nColumns=40
inDegrees=yes
endheader
time	pelvis_tilt	pelvis_list	pelvis_rotation	pelvis_tx	pelvis_ty	pelvis_tz	hip_flexion_r	hip_adduction_r	hip_rotation_r	knee_angle_r	knee_angle_r_beta	ankle_angle_r	subtalar_angle_r	mtp_angle_r	hip_flexion_l	hip_adduction_l	hip_rotation_l	knee_angle_l	knee_angle_l_beta	ankle_angle_l	subtalar_angle_l	mtp_angle_l	lumbar_extension	lumbar_bending	lumbar_rotation	arm_flex_r	arm_add_r	arm_rot_r	elbow_flex_r	pro_sup_r	wrist_flex_r	wrist_dev_r	arm_flex_l	arm_add_l	arm_rot_l	elbow_flex_l	pro_sup_l	wrist_flex_l	wrist_dev_l
1760624587.51999998	      9.71951118	      1.27062604	      0.65048600	      0.02578408	      0.90680864	     -0.00756658	     80.00000000	     -7.00000000	      0.00000000	     80.00000000	      1.39626340	      0.00000000	      0.00000000	      0.00000000	     80.00000000	     -7.00000000	      0.00000000	     80.00000000	      1.39626340	      0.00000000	      0.00000000	      0.00000000	    -11.39624807	     -1.95457725	      6.50905042	     -3.04444613	     -3.82336796	     17.23508774	      0.00000000	     49.42489680	    -24.37126160	    -24.99999983	      3.54535326	     -6.28995213	     17.18436935	     31.00387501	     71.46314060	    -26.68918013	     28.86559114
1760624587.55299997	      9.67020062	      1.10388928	      0.58815049	      0.02322303	      0.90626941	     -0.00749034	     80.00000000	     -7.00000000	      0.00000000	     80.00000000	      1.39626340	      0.00000000	      0.00000000	      0.00000000	     80.00000000	     -7.00000000	      0.00000000	     80.00000000	      1.39626340	      0.00000000	      0.00000000	      0.00000000	    -11.06352472	     -1.76049345	      6.60229011	     -3.45892350	     -3.82195424	     17.26684098	      0.00000000	     49.35123812	    -25.04200869	    -24.99999983	      3.28739510	     -6.24738837	     17.19586850	     30.57206426	     71.25057099	    -26.48044600	     28.44032905
1760624587.58699989	      9.95232400	      1.07970049	      0.58357573	      0.02350109	      0.90695901	     -0.00771055	     80.00000000	     -7.00000000	      0.00000000	     80.00000000	      1.39626340	      0.00000000	      0.00000000	      0.00000000	     80.00000000	     -7.00000000	      0.00000000	     80.00000000	      1.39626340	      0.00000000	      0.00000000	      0.00000000	    -11.40278243	     -1.76777961	      6.63179839	     -3.44865016	     -3.85580761	     17.23687434	      0.00000000	     49.49591068	    -25.19026383	    -24.99999983	      3.34133399	     -6.25137371	     17.23695750	     30.66190626	     71.27520263	    -26.52652056	     28.52300536
1760624587.61999989	      9.97666406	      1.06256343	      0.58791423	      0.02428164	      0.90725547	     -0.00805724	     80.00000000	     -7.00000000	      0.00000000	     80.00000000	      1.39626340	      0.00000000	      0.00000000	      0.00000000	     80.00000000	     -7.00000000	      0.00000000	     80.00000000	      1.39626340	      0.00000000	      0.00000000	      0.00000000	    -11.37059375	     -1.75458475	      6.63433039	     -3.55885374	     -3.92478233	     17.02950096	      0.00000000	     49.77922972	    -25.19576478	    -24.99999983	      3.26009656	     -6.24631393	     17.33455030	     30.63945082	     71.23651442	    -26.53679256	     28.49848557
1760624587.65400004	      9.97593999	      1.03236884	      0.53453733	      0.02511460	      0.90738666	     -0.00804319	     80.00000000	     -7.00000000	      0.00000000	     80.00000000	      1.39626340	      0.00000000	      0.00000000	      0.00000000	     80.00000000	     -7.00000000	      0.00000000	     80.00000000	      1.39626340	      0.00000000	      0.00000000	      0.00000000	    -11.38587377	     -1.75805619	      6.57406563	     -3.58706715	     -3.96246979	     16.89525553	      0.00000000	     49.96001913	    -25.19185398	    -24.99999983	      3.22949179	     -6.25432299	     17.34032230	     30.67716167	     71.18781589	    -26.57402637	     28.50021244
1760624587.68700004	     10.30194168	      0.99373352	      0.72135501	      0.02746704	      0.90772062	     -0.00762131	     80.00000000	     -7.00000000	      0.00000000	     80.00000000	      1.39626340	      0.00000000	      0.00000000	      0.00000000	     80.00000000	     -7.00000000	      0.00000000	     80.00000000	      1.39626340	      0.00000000	      0.00000000	      0.00000000	    -11.91220342	     -1.81850681	      6.31213648	     -3.38478873	     -3.89755660	     16.89896082	      0.00000000	     49.91963230	    -24.94695900	    -24.99999983	      3.44601970	     -6.39450708	     17.25445971	     33.08885163	     72.11331067	    -27.78588651	     30.85649886
1760624587.72099996	     10.61124653	      0.90832383	      0.79980419	      0.02902012	      0.90793017	     -0.00742984	     80.00000000	     -7.00000000	      0.00000000	     80.00000000	      1.39626340	      0.00000000	      0.00000000	      0.00000000	     80.00000000	     -7.00000000	      0.00000000	     80.00000000	      1.39626340	      0.00000000	      0.00000000	      0.00000000	    -12.37010203	     -1.77335850	      6.12286586	     -3.24144498	     -3.90248755	     16.89443933	      0.00000000	     49.98098894	    -25.06163233	    -24.99999983	      3.58105143	     -6.43494649	     17.19881650	     34.01592346	     72.43685537	    -28.26534206	     31.75193499
1760624587.75399995	     10.55770690	      0.95491236	      1.48562258	      0.03046678	      0.90839700	     -0.00868689	     80.00000000	     -7.00000000	      0.00000000	     80.00000000	      1.39626340	      0.00000000	      0.00000000	      0.00000000	     80.00000000	     -7.00000000	      0.00000000	     80.00000000	      1.39626340	      0.00000000	      0.00000000	      0.00000000	    -12.47837007	     -1.80310273	      5.42783584	     -3.09162937	     -3.81687586	     16.77433655	      0.00000000	     50.09845182	    -27.56991600	    -24.99999983	      3.72126829	     -6.52717623	     17.18238947	     34.83145211	     72.79283067	    -28.65388771	     32.53505073
1760624587.78699994	     10.67315755	      0.88710412	      1.60926635	      0.03129936	      0.90820790	     -0.00923006	     80.00000000	     -7.00000000	      0.00000000	     80.00000000	      1.39626340	      0.00000000	      0.00000000	      0.00000000	     80.00000000	     -7.00000000	      0.00000000	     80.00000000	      1.39626340	      0.00000000	      0.00000000	      0.00000000	    -12.60903611	     -1.74254485	      5.28726430	     -3.12070090	     -3.80028582	     16.66278370	      0.00000000	     50.26466094	    -30.64115121	    -24.99999983	      3.74764392	     -6.54138588	     17.17305028	     34.80633371	     72.79122971	    -28.62684224	     32.54700454
1760624587.82100010	     10.51871389	      0.84578065	      1.63992432	      0.03300867	      0.90811041	     -0.00946252	     80.00000000	     -7.00000000	      0.00000000	     80.00000000	      1.39626340	      0.00000000	      0.00000000	      0.00000000	     80.00000000	     -7.00000000	      0.00000000	     80.00000000	      1.39626340	      0.00000000	      0.00000000	      0.00000000	    -12.47578201	     -1.75266271	      5.24556820	     -3.14002210	     -3.78614357	     16.49751922	      0.00000000	     50.52158350	    -30.87801426	    -24.99999983	      3.78835342	     -6.56925022	     17.19132435	     35.34152665	     72.96148817	    -28.91263913	     33.06659186
